<svg xmlns="http://www.w3.org/2000/svg" width="30" height="27.447" viewBox="0 0 30 27.447"><defs><style>.a{fill:#fff;}</style></defs><path class="a" d="M349.763,65.967a.479.479,0,0,1-.479-.479V53.2h-3.989a.479.479,0,0,1,0-.957h4.468a.479.479,0,0,1,.479.479V65.489A.479.479,0,0,1,349.763,65.967Z" transform="translate(-323.752 -50.329)"/><path class="a" d="M151.608,53.2H143.63a.479.479,0,1,1,0-.957h7.979a.479.479,0,0,1,0,.957Z" transform="translate(-134.406 -50.329)"/><path class="a" d="M17.9,74.266H.479A.479.479,0,0,1,0,73.788V52.724a.479.479,0,0,1,.479-.479h3.83a.479.479,0,1,1,0,.957H.957V73.309H17.9a.479.479,0,1,1,0,.957Z" transform="translate(0 -50.33)"/><path class="a" d="M313.948,25.685a.479.479,0,0,1-.479-.479v-3.83a.479.479,0,1,1,.957,0v3.83A.479.479,0,0,1,313.948,25.685Z" transform="translate(-294.32 -20.898)"/><path class="a" d="M104.969,25.685a.479.479,0,0,1-.479-.479v-3.83a.479.479,0,1,1,.957,0v3.83A.479.479,0,0,1,104.969,25.685Z" transform="translate(-98.107 -20.898)"/><path class="a" d="M71.873,152.467H52.724a.479.479,0,0,1,0-.957H71.873a.479.479,0,1,1,0,.957Z" transform="translate(-49.054 -143.531)"/><path class="a" d="M67.4,215.161H52.724a.479.479,0,0,1,0-.957H67.4a.479.479,0,1,1,0,.957Z" transform="translate(-49.054 -202.395)"/><path class="a" d="M61.022,277.854h-8.3a.479.479,0,1,1,0-.957h8.3a.479.479,0,1,1,0,.957Z" transform="translate(-49.054 -261.259)"/><g transform="translate(16.915 14.362)"><path class="a" d="M283.441,269.085a6.543,6.543,0,1,1,6.543-6.543A6.543,6.543,0,0,1,283.441,269.085Zm0-12.128a5.585,5.585,0,1,0,5.585,5.585A5.585,5.585,0,0,0,283.441,256.957Z" transform="translate(-276.898 -256)"/><path class="a" d="M379.61,302.582h-2.968a.479.479,0,0,1-.479-.479v-3.83a.479.479,0,1,1,.958,0v3.351h2.489a.479.479,0,0,1,0,.957Z" transform="translate(-370.099 -295.242)"/></g></svg>