<svg xmlns="http://www.w3.org/2000/svg" width="30" height="25.15" viewBox="0 0 30 25.15"><defs><style>.a{fill:#fff;}</style></defs><g transform="translate(0 -28.814)"><g transform="translate(0 28.814)"><g transform="translate(0 0)"><path class="a" d="M28.192,28.814H1.808A1.81,1.81,0,0,0,0,30.623V52.156a1.81,1.81,0,0,0,1.808,1.808H28.192A1.81,1.81,0,0,0,30,52.156V30.623A1.811,1.811,0,0,0,28.192,28.814Zm-6.179,23.7h-1.62a.589.589,0,1,1,0-1.178h1.62a.589.589,0,0,1,0,1.178Zm4.662,0h-1.62a.589.589,0,1,1,0-1.178h1.62a.589.589,0,1,1,0,1.178ZM27.9,50.351H2.1V42.627a.241.241,0,0,1,.264-.249H4.807a.7.7,0,0,1,.454.229L6.2,43.663a.545.545,0,0,0,.943-.218s.78-2.855,1.053-3.8c.066-.229.142-.078.142-.078L9.058,41.3a.638.638,0,0,0,.583.388h2.336a.217.217,0,0,1,.207.178l1.037,4.086a.531.531,0,0,0,.5.414h.009a.531.531,0,0,0,.508-.4S15.414,42,15.8,40.672c.07-.24.169.008.169.008l.772,1.578a.652.652,0,0,0,.575.359h2.518a.622.622,0,0,0,.592-.44s.739-2.458.989-3.276c.048-.156.081.042.081.042l.982,3.96a.53.53,0,0,0,1,.109l.839-1.7a.143.143,0,0,1,.147-.082h3.3a.117.117,0,0,1,.133.116v9Zm0-10.245c0,.126-.133.119-.133.119H24.128a.654.654,0,0,0-.574.357s-.261.52-.344.7c-.072.152-.1-.008-.1-.008l-1.1-4.44a.523.523,0,0,0-1.018-.026l-1.418,4.7s-.017.107-.175.107H17.672A.207.207,0,0,1,17.5,41.5l-1.26-2.574a.532.532,0,0,0-1,.084l-1.405,4.768s-.056.267-.123-.006c-.16-.66-.668-2.632-.668-2.632a.621.621,0,0,0-.594-.462H10.135a.329.329,0,0,1-.311-.165L8.663,37.729a.528.528,0,0,0-1.007.063S6.762,40.9,6.5,41.95c-.109.445-.342.151-.342.151l-.442-.5a.711.711,0,0,0-.518-.234H2.388c-.295,0-.284-.234-.284-.234V32.427H27.9Z" transform="translate(0 -28.814)"/></g></g></g></svg>