<svg xmlns="http://www.w3.org/2000/svg" width="30.977" height="31.37" viewBox="0 0 30.977 31.37"><defs><style>.a{fill:#fff;}</style></defs><path class="a" d="M311.826,314.647h-2.068V312.6a.582.582,0,0,0-.579-.6h-1.853a.611.611,0,0,0-.612.6v2.052h-2.1a.611.611,0,0,0-.612.6V317.1a.611.611,0,0,0,.612.6h2.1v2.118a.611.611,0,0,0,.612.6h1.853a.582.582,0,0,0,.579-.6v-2.118h2.068a.582.582,0,0,0,.579-.6v-1.853a.582.582,0,0,0-.579-.6Zm-.347,2.118h-2.035a.611.611,0,0,0-.612.6v2.118H307.64v-2.118a.582.582,0,0,0-.579-.6h-2.134v-1.191h2.134a.582.582,0,0,0,.579-.6v-2.052h1.191v2.052a.611.611,0,0,0,.612.6h2.035Z" transform="translate(-285.337 -292.609)"/><path class="a" d="M45.02,34.5A7.933,7.933,0,0,0,38.508,37.9q-.187-.058-.354-.112l-.45-1.275a5.171,5.171,0,0,0,1.874-3.455,3.638,3.638,0,0,0,2.137-2.807,1.572,1.572,0,0,0-.675-1.824,1.156,1.156,0,0,0-.528-.128c.03-.228.062-.508.1-.851.077-.8.126-1.613.126-1.819,0-.146,0-.3.006-.455A5.268,5.268,0,0,0,39.4,20.92h0a6.675,6.675,0,0,0-9.592.23l-.109.122a5.724,5.724,0,0,0-1.6,4.614,17.839,17.839,0,0,0,.532,2.446,1.167,1.167,0,0,0-.444.137,1.557,1.557,0,0,0-.646,1.784,3.632,3.632,0,0,0,2.142,2.808,5.308,5.308,0,0,0,1.858,3.424l-.593,1.22c-.424.133-.9.264-1.394.4C26.37,39,22,40.223,22,44.194v4.152c0,.981.525,2.023,1.466,2.023H45.06A7.936,7.936,0,1,0,45.02,34.5ZM30.385,21.89l.112-.126a5.612,5.612,0,0,1,4.052-1.836,5.671,5.671,0,0,1,4.188,1.643,4.441,4.441,0,0,1,1.075,3.589c0,.164-.006.318-.006.473,0,.1-.01.3-.027.561a5.31,5.31,0,0,0-.969-2.107l-.034-.069a.463.463,0,0,0-.836.015c-.746,1.642-1.486,1.576-2.711,1.467-.142-.013-.287-.026-.434-.036a.631.631,0,0,0-.686.357c-.151.351.059.73.443,1.179-1.223-.146-1.533-1.041-1.812-1.847-.194-.56-.414-1.195-1.052-1.195a2.158,2.158,0,0,0-1.639.706,4.091,4.091,0,0,0-.891,1.948,5.863,5.863,0,0,1-.132-.749A4.809,4.809,0,0,1,30.385,21.89Zm.182,10.744a.466.466,0,0,0-.463-.445h-.02c-.678,0-1.395-1.107-1.641-2.149-.094-.4.03-.672.184-.756.175-.095.362.072.434.148a.588.588,0,0,0,.856-.526c-.049-.711,0-2.745.81-3.612a1.24,1.24,0,0,1,.905-.41,3.29,3.29,0,0,1,.232.57,3.091,3.091,0,0,0,3.814,2.434.463.463,0,0,0,.248-.8,8.409,8.409,0,0,1-.639-.655,2.83,2.83,0,0,0,3.118-1.315,13.5,13.5,0,0,1,.956,4.112.463.463,0,0,0,.461.424l.04,0a.463.463,0,0,0,.387-.281c.091-.09.231-.188.364-.12.17.088.293.386.2.788-.246,1.042-.963,2.149-1.641,2.149H39.16a.467.467,0,0,0-.255.071.462.462,0,0,0-.217.379,4.258,4.258,0,0,1-1.778,3.3l-.007,0a4.276,4.276,0,0,1-2.276.571,4.186,4.186,0,0,1-2.271-.585,4.379,4.379,0,0,1-1.79-3.294Zm1.127,5.656.642-1.32a5.358,5.358,0,0,0,2.292.469,5.48,5.48,0,0,0,2.262-.446l.465,1.319a.463.463,0,0,0,.287.285q.173.059.367.121a7.883,7.883,0,0,0-.56,1.333,3.708,3.708,0,0,1-5.5.121,3.465,3.465,0,0,1-.859-1.539q.17-.052.334-.105a.463.463,0,0,0,.273-.238ZM22.927,48.347V44.194c0-3.269,3.817-4.336,6.877-5.194l.387-.108a4.645,4.645,0,0,0,6.941,2.655,7.939,7.939,0,0,0,4.17,7.9H23.466C23.171,49.443,22.927,48.854,22.927,48.347Zm22.093,1.1a7.01,7.01,0,1,1,7.01-7.01A7.01,7.01,0,0,1,45.02,49.443Z" transform="translate(-22 -19)"/></svg>