<svg xmlns="http://www.w3.org/2000/svg" width="30.25" height="27.925" viewBox="0 0 30.25 27.925"><defs><style>.a{fill:#fff;}</style></defs><g transform="translate(-19 -37.441)"><path class="a" d="M315.613,292.909a2.317,2.317,0,0,0-1.871.951,2.316,2.316,0,0,0-1.872-.953,2.114,2.114,0,0,0-1.816.918,3.1,3.1,0,0,0-.5,1.756c0,2.873,3.787,5.357,3.948,5.462a.447.447,0,0,0,.486,0c.161-.1,3.947-2.6,3.947-5.461A2.473,2.473,0,0,0,315.613,292.909Zm-1.873,7.216c-.8-.574-3.3-2.528-3.3-4.543,0-.3.069-1.781,1.425-1.781a1.427,1.427,0,0,1,1.425,1.426.447.447,0,1,0,.893,0,1.427,1.427,0,0,1,1.425-1.425c1.038,0,1.425,1.091,1.425,1.779C317.038,297.584,314.541,299.547,313.741,300.124Z" transform="translate(-272.013 -239.166)"/><path class="a" d="M41.729,50.323a7.53,7.53,0,0,0-6.759,4.224l-.2-.063-.563-1.268A5.013,5.013,0,0,0,36,49.886a3.521,3.521,0,0,0,2.069-2.717,1.52,1.52,0,0,0-.653-1.764,1.1,1.1,0,0,0-.513-.124c.03-.222.06-.493.092-.826.074-.777.122-1.562.122-1.761a5.471,5.471,0,0,0-1.078-3.143,5.993,5.993,0,0,0-4.93-2.111,6.437,6.437,0,0,0-4.976,1.969,4.97,4.97,0,0,0-1.24,3.585c0,.027.028.153.066.341a.446.446,0,0,0,.012.073l.009.032c.1.474.264,1.238.435,1.869a1.127,1.127,0,0,0-.443.134,1.506,1.506,0,0,0-.624,1.725,3.516,3.516,0,0,0,2.074,2.718,5.162,5.162,0,0,0,1.748,3.276l-.6,1.295c-.425.133-.892.263-1.386.4C23.153,55.7,19,56.846,19,60.668v2.756a2.333,2.333,0,0,0,2.047,1.935H41.418c.1,0,.207.007.311.007a7.521,7.521,0,1,0,0-15.043ZM26.812,39.994a5.4,5.4,0,0,1,4.3-1.66,4.975,4.975,0,0,1,4.218,1.757,4.406,4.406,0,0,1,.7,1.4,5.935,5.935,0,0,0-1.377-1.106.443.443,0,0,0-.646.273c-.005.018-.555,1.808-4.026,3.377a3.789,3.789,0,0,1-3.11.344,2.013,2.013,0,0,1-1.036-1.192v0c-.028-.137-.048-.247-.058-.316A4.3,4.3,0,0,1,26.812,39.994Zm.466,9.48a.45.45,0,0,0-.447-.429h-.018c-.533,0-1.3-.832-1.593-2.082-.092-.388.029-.652.18-.734.171-.092.352.07.423.144a.447.447,0,0,0,.69-.564,4.854,4.854,0,0,1-.235-.741q.1.056.2.106a3.167,3.167,0,0,0,1.381.3,6.156,6.156,0,0,0,2.494-.626,8.771,8.771,0,0,0,4.281-3.414,5.243,5.243,0,0,1,.576.488,2.731,2.731,0,0,1,.947,1.912,13.118,13.118,0,0,1-.259,2,.447.447,0,0,0,.714.532c.083-.094.245-.241.4-.162s.285.375.193.764c-.3,1.258-1.068,2.091-1.6,2.082a.447.447,0,0,0-.455.434,4.122,4.122,0,0,1-1.729,3.2,4.14,4.14,0,0,1-2.205.554,4.056,4.056,0,0,1-2.2-.566A4.241,4.241,0,0,1,27.279,49.475ZM28.3,55.012l.635-1.369a5.151,5.151,0,0,0,2.276.482,5.283,5.283,0,0,0,2.223-.446l.6,1.349a.447.447,0,0,0,.265.242c.1.034.209.069.324.105q-.107.308-.188.626a3.709,3.709,0,0,1-3.224,1.9,3.491,3.491,0,0,1-3.388-2.586l.211-.067a.447.447,0,0,0,.267-.237Zm-7.254,9.454c-.423,0-1.154-.662-1.154-1.041V60.668a3.671,3.671,0,0,1,2.079-3.3,18.41,18.41,0,0,1,4.452-1.65l.542-.151a4.393,4.393,0,0,0,4.247,3.227,4.523,4.523,0,0,0,3-1.128c0,.059,0,.118,0,.177a7.528,7.528,0,0,0,3.956,6.621Zm20.681.007h-.011a.446.446,0,0,0-.075-.007h-.21a6.621,6.621,0,1,1,.3.007Z"/></g></svg>